{
    "asset" : {
        "generator" : "Khronos glTF Blender I/O v3.4.50",
        "version" : "2.0"
    },
    "extensionsUsed" : [
        "KHR_materials_transmission",
        "KHR_materials_ior"
    ],
    "scene" : 0,
    "scenes" : [
        {
            "name" : "Scene",
            "nodes" : [
                7
            ]
        }
    ],
    "nodes" : [
        {
            "mesh" : 0,
            "name" : "Curve",
            "translation" : [
                -0.008199299685657024,
                0.016000019386410713,
                -0.008197514340281487
            ]
        },
        {
            "mesh" : 1,
            "name" : "Curve.001",
            "translation" : [
                -0.042336445301771164,
                0.008000006899237633,
                0.016790442168712616
            ]
        },
        {
            "mesh" : 2,
            "name" : "Curve.002",
            "translation" : [
                0.04162343591451645,
                0.008000007830560207,
                0.015292003750801086
            ]
        },
        {
            "mesh" : 3,
            "name" : "Curve.003",
            "translation" : [
                -0.01573834754526615,
                0.008000007830560207,
                0.04337693750858307
            ]
        },
        {
            "mesh" : 4,
            "name" : "Curve.004",
            "translation" : [
                0.0007507128757424653,
                0.008000007830560207,
                -0.04197108745574951
            ]
        },
        {
            "mesh" : 5,
            "name" : "Curve.005",
            "translation" : [
                -0.006052154581993818,
                0.008000005967915058,
                0.011842749081552029
            ]
        },
        {
            "mesh" : 6,
            "name" : "Curve.006",
            "translation" : [
                0.015019257552921772,
                0.008000006899237633,
                -0.010358871892094612
            ]
        },
        {
            "children" : [
                0,
                1,
                2,
                3,
                4,
                5,
                6
            ],
            "mesh" : 7,
            "name" : "Curve.007",
            "rotation" : [
                0.5,
                0.5000000596046448,
                -0.5,
                0.4999999403953552
            ],
            "scale" : [
                4.571900367736816,
                4.571900367736816,
                4.571900367736816
            ],
            "translation" : [
                0.03500000014901161,
                0.05000000074505806,
                0
            ]
        }
    ],
    "animations" : [
        {
            "channels" : [
                {
                    "sampler" : 0,
                    "target" : {
                        "node" : 7,
                        "path" : "translation"
                    }
                }
            ],
            "name" : "ani_floating",
            "samplers" : [
                {
                    "input" : 32,
                    "interpolation" : "LINEAR",
                    "output" : 33
                }
            ]
        }
    ],
    "materials" : [
        {
            "doubleSided" : true,
            "emissiveFactor" : [
                0.0008030105614601976,
                0.0008030105614601976,
                0.0008030105614601976
            ],
            "extensions" : {
                "KHR_materials_transmission" : {
                    "transmissionFactor" : 1
                },
                "KHR_materials_ior" : {
                    "ior" : 1.4500000476837158
                }
            },
            "name" : "NODE_TEST.003",
            "pbrMetallicRoughness" : {
                "baseColorFactor" : [
                    0.8468735814094543,
                    0.9473066926002502,
                    0.9911022186279297,
                    0.0010000000474974513
                ],
                "metallicFactor" : 0,
                "roughnessFactor" : 0
            }
        },
        {
            "doubleSided" : true,
            "emissiveFactor" : [
                0.04518621414899826,
                0.30946895480155945,
                0.5209956765174866
            ],
            "name" : "NODE_TEST.001",
            "pbrMetallicRoughness" : {
                "baseColorFactor" : [
                    0,
                    0,
                    0,
                    1
                ]
            }
        },
        {
            "doubleSided" : true,
            "emissiveFactor" : [
                0.41254276037216187,
                0.7379106283187866,
                0.9046614170074463
            ],
            "name" : "NODE_TEST.002",
            "pbrMetallicRoughness" : {
                "baseColorFactor" : [
                    0,
                    0,
                    0,
                    1
                ]
            }
        }
    ],
    "meshes" : [
        {
            "name" : "Curve.018",
            "primitives" : [
                {
                    "attributes" : {
                        "POSITION" : 0,
                        "TEXCOORD_0" : 1,
                        "NORMAL" : 2
                    },
                    "indices" : 3,
                    "material" : 0
                }
            ]
        },
        {
            "name" : "Curve.019",
            "primitives" : [
                {
                    "attributes" : {
                        "POSITION" : 4,
                        "TEXCOORD_0" : 5,
                        "NORMAL" : 6
                    },
                    "indices" : 7,
                    "material" : 1
                }
            ]
        },
        {
            "name" : "Curve.020",
            "primitives" : [
                {
                    "attributes" : {
                        "POSITION" : 8,
                        "TEXCOORD_0" : 9,
                        "NORMAL" : 10
                    },
                    "indices" : 11,
                    "material" : 1
                }
            ]
        },
        {
            "name" : "Curve.021",
            "primitives" : [
                {
                    "attributes" : {
                        "POSITION" : 12,
                        "TEXCOORD_0" : 13,
                        "NORMAL" : 14
                    },
                    "indices" : 15,
                    "material" : 1
                }
            ]
        },
        {
            "name" : "Curve.022",
            "primitives" : [
                {
                    "attributes" : {
                        "POSITION" : 16,
                        "TEXCOORD_0" : 17,
                        "NORMAL" : 18
                    },
                    "indices" : 19,
                    "material" : 1
                }
            ]
        },
        {
            "name" : "Curve.023",
            "primitives" : [
                {
                    "attributes" : {
                        "POSITION" : 20,
                        "TEXCOORD_0" : 21,
                        "NORMAL" : 22
                    },
                    "indices" : 23,
                    "material" : 2
                }
            ]
        },
        {
            "name" : "Curve.024",
            "primitives" : [
                {
                    "attributes" : {
                        "POSITION" : 24,
                        "TEXCOORD_0" : 25,
                        "NORMAL" : 26
                    },
                    "indices" : 27,
                    "material" : 2
                }
            ]
        },
        {
            "name" : "Curve.025",
            "primitives" : [
                {
                    "attributes" : {
                        "POSITION" : 28,
                        "TEXCOORD_0" : 29,
                        "NORMAL" : 30
                    },
                    "indices" : 31,
                    "material" : 0
                }
            ]
        }
    ],
    "accessors" : [
        {
            "bufferView" : 0,
            "componentType" : 5126,
            "count" : 22,
            "max" : [
                0.051174141466617584,
                9.999999747378752e-05,
                0.05116333067417145
            ],
            "min" : [
                -0.03477556258440018,
                -9.999999747378752e-05,
                -0.034768227487802505
            ],
            "type" : "VEC3"
        },
        {
            "bufferView" : 1,
            "componentType" : 5126,
            "count" : 22,
            "type" : "VEC2"
        },
        {
            "bufferView" : 2,
            "componentType" : 5126,
            "count" : 22,
            "type" : "VEC3"
        },
        {
            "bufferView" : 3,
            "componentType" : 5123,
            "count" : 36,
            "type" : "SCALAR"
        },
        {
            "bufferView" : 4,
            "componentType" : 5126,
            "count" : 587,
            "max" : [
                0.005999574437737465,
                0.009999999776482582,
                0.048133693635463715
            ],
            "min" : [
                -0.00528954342007637,
                -0.009999999776482582,
                -0.08021340519189835
            ],
            "type" : "VEC3"
        },
        {
            "bufferView" : 5,
            "componentType" : 5126,
            "count" : 587,
            "type" : "VEC2"
        },
        {
            "bufferView" : 6,
            "componentType" : 5126,
            "count" : 587,
            "type" : "VEC3"
        },
        {
            "bufferView" : 7,
            "componentType" : 5123,
            "count" : 996,
            "type" : "SCALAR"
        },
        {
            "bufferView" : 8,
            "componentType" : 5126,
            "count" : 577,
            "max" : [
                0.0059996917843818665,
                0.009999999776482582,
                0.048133812844753265
            ],
            "min" : [
                -0.005289427936077118,
                -0.009999999776482582,
                -0.08021330088376999
            ],
            "type" : "VEC3"
        },
        {
            "bufferView" : 9,
            "componentType" : 5126,
            "count" : 577,
            "type" : "VEC2"
        },
        {
            "bufferView" : 10,
            "componentType" : 5126,
            "count" : 577,
            "type" : "VEC3"
        },
        {
            "bufferView" : 11,
            "componentType" : 5123,
            "count" : 996,
            "type" : "SCALAR"
        },
        {
            "bufferView" : 12,
            "componentType" : 5126,
            "count" : 527,
            "max" : [
                0.0791747197508812,
                0.009999999776482582,
                0.004238991532474756
            ],
            "min" : [
                -0.04919949173927307,
                -0.009999999776482582,
                -0.007050567772239447
            ],
            "type" : "VEC3"
        },
        {
            "bufferView" : 13,
            "componentType" : 5126,
            "count" : 527,
            "type" : "VEC2"
        },
        {
            "bufferView" : 14,
            "componentType" : 5126,
            "count" : 527,
            "type" : "VEC3"
        },
        {
            "bufferView" : 15,
            "componentType" : 5123,
            "count" : 996,
            "type" : "SCALAR"
        },
        {
            "bufferView" : 16,
            "componentType" : 5126,
            "count" : 571,
            "max" : [
                0.06418710947036743,
                0.009999999776482582,
                0.005644761025905609
            ],
            "min" : [
                -0.06418710947036743,
                -0.009999999776482582,
                -0.005644798278808594
            ],
            "type" : "VEC3"
        },
        {
            "bufferView" : 17,
            "componentType" : 5126,
            "count" : 571,
            "type" : "VEC2"
        },
        {
            "bufferView" : 18,
            "componentType" : 5126,
            "count" : 571,
            "type" : "VEC3"
        },
        {
            "bufferView" : 19,
            "componentType" : 5123,
            "count" : 1140,
            "type" : "SCALAR"
        },
        {
            "bufferView" : 20,
            "componentType" : 5126,
            "count" : 2633,
            "max" : [
                0.01773536577820778,
                0.00800000037997961,
                0.02123023197054863
            ],
            "min" : [
                -0.019546356052160263,
                -0.00800000037997961,
                -0.044907525181770325
            ],
            "type" : "VEC3"
        },
        {
            "bufferView" : 21,
            "componentType" : 5126,
            "count" : 2633,
            "type" : "VEC2"
        },
        {
            "bufferView" : 22,
            "componentType" : 5126,
            "count" : 2633,
            "type" : "VEC3"
        },
        {
            "bufferView" : 23,
            "componentType" : 5123,
            "count" : 4680,
            "type" : "SCALAR"
        },
        {
            "bufferView" : 24,
            "componentType" : 5126,
            "count" : 1486,
            "max" : [
                0.014054705388844013,
                0.00800000037997961,
                0.01810724288225174
            ],
            "min" : [
                -0.014394845813512802,
                -0.00800000037997961,
                -0.022713063284754753
            ],
            "type" : "VEC3"
        },
        {
            "bufferView" : 25,
            "componentType" : 5126,
            "count" : 1486,
            "type" : "VEC2"
        },
        {
            "bufferView" : 26,
            "componentType" : 5126,
            "count" : 1486,
            "type" : "VEC3"
        },
        {
            "bufferView" : 27,
            "componentType" : 5123,
            "count" : 2724,
            "type" : "SCALAR"
        },
        {
            "bufferView" : 28,
            "componentType" : 5126,
            "count" : 22,
            "max" : [
                0.04297485202550888,
                9.999999747378752e-05,
                0.04296577721834183
            ],
            "min" : [
                -0.04297485202550888,
                -9.999999747378752e-05,
                -0.04296577721834183
            ],
            "type" : "VEC3"
        },
        {
            "bufferView" : 29,
            "componentType" : 5126,
            "count" : 22,
            "type" : "VEC2"
        },
        {
            "bufferView" : 30,
            "componentType" : 5126,
            "count" : 22,
            "type" : "VEC3"
        },
        {
            "bufferView" : 31,
            "componentType" : 5123,
            "count" : 36,
            "type" : "SCALAR"
        },
        {
            "bufferView" : 32,
            "componentType" : 5126,
            "count" : 121,
            "max" : [
                4.033333333333333
            ],
            "min" : [
                0.03333333333333333
            ],
            "type" : "SCALAR"
        },
        {
            "bufferView" : 33,
            "componentType" : 5126,
            "count" : 121,
            "type" : "VEC3"
        }
    ],
    "bufferViews" : [
        {
            "buffer" : 0,
            "byteLength" : 264,
            "byteOffset" : 0,
            "target" : 34962
        },
        {
            "buffer" : 0,
            "byteLength" : 176,
            "byteOffset" : 264,
            "target" : 34962
        },
        {
            "buffer" : 0,
            "byteLength" : 264,
            "byteOffset" : 440,
            "target" : 34962
        },
        {
            "buffer" : 0,
            "byteLength" : 72,
            "byteOffset" : 704,
            "target" : 34963
        },
        {
            "buffer" : 0,
            "byteLength" : 7044,
            "byteOffset" : 776,
            "target" : 34962
        },
        {
            "buffer" : 0,
            "byteLength" : 4696,
            "byteOffset" : 7820,
            "target" : 34962
        },
        {
            "buffer" : 0,
            "byteLength" : 7044,
            "byteOffset" : 12516,
            "target" : 34962
        },
        {
            "buffer" : 0,
            "byteLength" : 1992,
            "byteOffset" : 19560,
            "target" : 34963
        },
        {
            "buffer" : 0,
            "byteLength" : 6924,
            "byteOffset" : 21552,
            "target" : 34962
        },
        {
            "buffer" : 0,
            "byteLength" : 4616,
            "byteOffset" : 28476,
            "target" : 34962
        },
        {
            "buffer" : 0,
            "byteLength" : 6924,
            "byteOffset" : 33092,
            "target" : 34962
        },
        {
            "buffer" : 0,
            "byteLength" : 1992,
            "byteOffset" : 40016,
            "target" : 34963
        },
        {
            "buffer" : 0,
            "byteLength" : 6324,
            "byteOffset" : 42008,
            "target" : 34962
        },
        {
            "buffer" : 0,
            "byteLength" : 4216,
            "byteOffset" : 48332,
            "target" : 34962
        },
        {
            "buffer" : 0,
            "byteLength" : 6324,
            "byteOffset" : 52548,
            "target" : 34962
        },
        {
            "buffer" : 0,
            "byteLength" : 1992,
            "byteOffset" : 58872,
            "target" : 34963
        },
        {
            "buffer" : 0,
            "byteLength" : 6852,
            "byteOffset" : 60864,
            "target" : 34962
        },
        {
            "buffer" : 0,
            "byteLength" : 4568,
            "byteOffset" : 67716,
            "target" : 34962
        },
        {
            "buffer" : 0,
            "byteLength" : 6852,
            "byteOffset" : 72284,
            "target" : 34962
        },
        {
            "buffer" : 0,
            "byteLength" : 2280,
            "byteOffset" : 79136,
            "target" : 34963
        },
        {
            "buffer" : 0,
            "byteLength" : 31596,
            "byteOffset" : 81416,
            "target" : 34962
        },
        {
            "buffer" : 0,
            "byteLength" : 21064,
            "byteOffset" : 113012,
            "target" : 34962
        },
        {
            "buffer" : 0,
            "byteLength" : 31596,
            "byteOffset" : 134076,
            "target" : 34962
        },
        {
            "buffer" : 0,
            "byteLength" : 9360,
            "byteOffset" : 165672,
            "target" : 34963
        },
        {
            "buffer" : 0,
            "byteLength" : 17832,
            "byteOffset" : 175032,
            "target" : 34962
        },
        {
            "buffer" : 0,
            "byteLength" : 11888,
            "byteOffset" : 192864,
            "target" : 34962
        },
        {
            "buffer" : 0,
            "byteLength" : 17832,
            "byteOffset" : 204752,
            "target" : 34962
        },
        {
            "buffer" : 0,
            "byteLength" : 5448,
            "byteOffset" : 222584,
            "target" : 34963
        },
        {
            "buffer" : 0,
            "byteLength" : 264,
            "byteOffset" : 228032,
            "target" : 34962
        },
        {
            "buffer" : 0,
            "byteLength" : 176,
            "byteOffset" : 228296,
            "target" : 34962
        },
        {
            "buffer" : 0,
            "byteLength" : 264,
            "byteOffset" : 228472,
            "target" : 34962
        },
        {
            "buffer" : 0,
            "byteLength" : 72,
            "byteOffset" : 228736,
            "target" : 34963
        },
        {
            "buffer" : 0,
            "byteLength" : 484,
            "byteOffset" : 228808
        },
        {
            "buffer" : 0,
            "byteLength" : 1452,
            "byteOffset" : 229292
        }
    ],
    "buffers" : [
        {
            "byteLength" : 230744,
            "uri" : "skymelo3d_floating6.bin"
        }
    ]
}
